<?xml version="1.0"?> <svg xmlns="http://www.w3.org/2000/svg" width="282.553" height="47.807" viewBox="0 0 282.553 47.807"><g transform="translate(-30.968 -30.417)"><g transform="translate(74.015 41.515)"><g transform="translate(0)"><path d="M159.7-38.006c2.895,0,4.937.78,6.271,2.112l1-1.779h1.446a38.739,38.739,0,0,0-.707,5.117v2.562H166.04v-1.522c0-3.006-2.41-5.079-6.2-5.079-6.344,0-7.641,5.9-7.641,11.424,0,6.015,1.516,11.319,7.752,11.319,3.9,0,6.122-2.115,6.975-5.9l1.595.26c-.777,3.6-2.892,7.051-8.938,7.051-7.533,0-11.357-5.308-11.357-12.838C148.231-33.034,152.312-38.006,159.7-38.006Z" transform="translate(-148.231 39.601)" fill="#efeff2"></path><path d="M165.431-27.823v-3.412c0-2.115-.6-3.117-3.082-3.117s-3.263,1.04-3.263,3.117a11.922,11.922,0,0,0,.111,1.56c-2.153,0-3.193-1.075-3.193-2.454,0-2.108,2.521-3.408,6.42-3.408,4.451,0,6.268,1.443,6.268,5.339v9.02c0,1.037.263,1.595.853,1.595,1.189,0,1.633-2.039,1.633-2.039l1.3.444s-.666,3.228-3.671,3.228a2.772,2.772,0,0,1-3.044-2.673h-.073a6.111,6.111,0,0,1-5.159,2.822c-2.524,0-5.235-1.411-5.235-4.42C155.3-26.374,160.72-27.823,165.431-27.823Zm-4.341,8.611a4.893,4.893,0,0,0,4.341-4.268v-2.93c-4.379,0-6.608,1.11-6.608,4.341C158.824-20.252,159.642-19.212,161.091-19.212Z" transform="translate(-132.891 44.96)" fill="#efeff2"></path><path d="M160.79-13.2H163.8v-23.97H160.46v-1.335h6.6v25.3h3.006v1.332h-9.28Z" transform="translate(-121.687 38.509)" fill="#efeff2"></path><path d="M163.788-13.2h3v-23.97h-3.336v-1.335h6.6v25.3h3.009v1.332h-9.277Z" transform="translate(-115.186 38.509)" fill="#efeff2"></path><path d="M174.5-35.537c4.341,0,6.674,2.226,6.674,6.937v1.779h-10.8v.26c0,5.609,1.373,7.384,4.306,7.384a4.929,4.929,0,0,0,5.006-4l1.484.257a6.525,6.525,0,0,1-6.49,5.124c-4.861,0-7.758-2.6-7.758-8.8C166.929-33.086,170.049-35.537,174.5-35.537Zm3.446,7.308v-.926c0-3.079-.7-5.2-3.488-5.2-2.857,0-3.97,2.746-4.042,6.122Z" transform="translate(-107.645 44.96)" fill="#efeff2"></path><path d="M174.928-23.279a5.4,5.4,0,0,1-1.671-4.226c0-3.453,2.378-5.973,6.937-5.973a7.886,7.886,0,0,1,4.9,1.443,4.19,4.19,0,0,0,.932-2.888,12.958,12.958,0,0,0-.111-1.56c2.334,0,3.228,1.262,3.228,2.486,0,1.446-1.56,2.451-3.228,2.857a5.6,5.6,0,0,1,1.11,3.488c0,3.862-2.632,5.935-6.975,5.935a9,9,0,0,1-3.97-.777c-.961.628-1.89,1.411-1.89,2.445,0,3.935,14.391-.815,14.391,6.906,0,4.486-4.448,5.866-8.415,5.866-4.572,0-7.686-1.49-7.686-3.786,0-1.338,1.265-2.378,3.263-2.378-.663,3.6.932,4.9,4.423,4.9,3.075,0,6.189-.631,6.189-3.453,0-5.488-14.131-.225-14.131-7.007C172.22-20.936,173.406-22.236,174.928-23.279Zm8.789-4.375c0-2.933-1.034-4.711-3.592-4.711-2.6,0-3.567,1.817-3.567,4.9,0,2.93.964,4.635,3.526,4.635C182.718-22.832,183.717-24.538,183.717-27.655Z" transform="translate(-96.161 42.902)" fill="#efeff2"></path><path d="M187.875-27.823v-3.412c0-2.115-.6-3.117-3.082-3.117s-3.266,1.04-3.266,3.117a12.5,12.5,0,0,0,.111,1.56c-2.153,0-3.19-1.075-3.19-2.454,0-2.108,2.521-3.408,6.417-3.408,4.455,0,6.271,1.443,6.271,5.339v9.02c0,1.037.26,1.595.85,1.595,1.2,0,1.636-2.039,1.636-2.039l1.3.444s-.669,3.228-3.672,3.228a2.771,2.771,0,0,1-3.044-2.673h-.073a6.111,6.111,0,0,1-5.159,2.822c-2.521,0-5.235-1.411-5.235-4.42C177.742-26.374,183.161-27.823,187.875-27.823Zm-4.344,8.611a4.9,4.9,0,0,0,4.344-4.268v-2.93c-4.382,0-6.607,1.11-6.607,4.341C181.268-20.252,182.089-19.212,183.531-19.212Z" transform="translate(-84.174 44.96)" fill="#efeff2"></path><path d="M183.456-19.655h3.006V-33.682h-3.335v-1.332h6.417v3.668h.073c.78-1.966,2.226-4.192,5.12-4.192,1.931,0,3.672.964,3.672,2.784,0,1.294-.929,2.635-3.339,2.635a18.106,18.106,0,0,0,.076-1.9c0-1.262-.26-2.08-1.186-2.08-2.489,0-4.233,5.124-4.233,7.907v6.531h3.339v1.332h-9.61Z" transform="translate(-72.488 44.96)" fill="#efeff2"></path><path d="M188.375-14.3h3.006V-28.323h-3.342v-1.332h6.607V-14.3h3.009v1.332h-9.28Zm4.379-23.71a2.152,2.152,0,0,1,2.153,2.146,2.164,2.164,0,0,1-2.153,2.194,2.169,2.169,0,0,1-2.188-2.194A2.157,2.157,0,0,1,192.754-38.006Z" transform="translate(-61.824 39.601)" fill="#efeff2"></path></g><g transform="translate(172.106 1.595)"><path d="M202.513-14.652h3.668V-36.507h-3.668v-1.335h11.056c8.973,0,12.349,4.67,12.349,11.871,0,7.013-3.114,12.651-12.349,12.651H202.513ZM209.818-36.4v21.633h3.817c5.866,0,8.316-3.6,8.316-10.8,0-7.533-2.451-10.837-8.316-10.837Z" transform="translate(-202.513 38.362)" fill="#efeff2"></path><path d="M210.91-14.3h3.009V-28.323h-3.345v-1.332h6.608V-14.3h3v1.332H210.91Zm4.375-23.71a2.146,2.146,0,0,1,2.146,2.146,2.159,2.159,0,0,1-2.146,2.194,2.168,2.168,0,0,1-2.188-2.194A2.155,2.155,0,0,1,215.285-38.006Z" transform="translate(-185.016 38.006)" fill="#efeff2"></path><path d="M224.114-27.823v-3.412c0-2.115-.59-3.117-3.079-3.117s-3.263,1.04-3.263,3.117a12.5,12.5,0,0,0,.111,1.56c-2.153,0-3.19-1.075-3.19-2.454,0-2.108,2.527-3.408,6.417-3.408,4.458,0,6.271,1.443,6.271,5.339v9.02c0,1.037.26,1.595.85,1.595,1.189,0,1.639-2.039,1.639-2.039l1.3.444s-.669,3.228-3.675,3.228a2.773,2.773,0,0,1-3.041-2.673h-.079a6.092,6.092,0,0,1-5.159,2.822c-2.517,0-5.225-1.411-5.225-4.42C213.99-26.374,219.408-27.823,224.114-27.823Zm-4.334,8.611a4.89,4.89,0,0,0,4.334-4.268v-2.93c-4.372,0-6.6,1.11-6.6,4.341C217.512-20.252,218.33-19.212,219.779-19.212Z" transform="translate(-177.601 43.365)" fill="#efeff2"></path><path d="M219.9-21.513V-24.63h1.56v1.706c0,1.782,1.972,3.824,5.048,3.824,1.814,0,3.3-.7,3.3-2.673,0-5.01-9.864-2-9.864-8.64,0-3.824,3.3-5.124,6.005-5.124a5.667,5.667,0,0,1,4.306,1.671l.482-1.487h1.449a30.673,30.673,0,0,0-.488,3.526v2.264h-1.554v-.967c0-1.744-1.332-3.706-4.223-3.706-1.858,0-3.234.78-3.234,2.559,0,4.781,9.94,2.042,9.94,8.5,0,2.965-2.188,5.381-6.23,5.381a6,6,0,0,1-4.822-1.855l-.409,1.671h-1.481S219.9-19.915,219.9-21.513Z" transform="translate(-165.231 43.365)" fill="#efeff2"></path></g><g transform="translate(146.983 9.467)"><path d="M208.46-23.018l-.948.209a1.921,1.921,0,0,1,.114.7c0,.669-.276,1.458-1.106,1.458-.352,0-.672-.14-1.208-.809l-.786-1a9.785,9.785,0,0,0,1.411-5v-.691h2.112v-.907h-5.26v.907h2.153v.691a8.407,8.407,0,0,1-1.068,4.195l-4.442-5.7a5.738,5.738,0,0,1-1.414-3.475,2.017,2.017,0,0,1,2.112-2.248A1.688,1.688,0,0,1,202-32.768a10.646,10.646,0,0,1-.139,1.344c1.439,0,2.039-.742,2.039-1.69,0-1.3-1.2-2.41-3.63-2.41-2.575,0-4.106,1.436-4.106,3.773a5.5,5.5,0,0,0,1.183,3.316,4.887,4.887,0,0,0-2.755,4.4,4.418,4.418,0,0,0,4.677,4.467,6.121,6.121,0,0,0,3.846-1.411,3.793,3.793,0,0,0,2.942,1.411,2.337,2.337,0,0,0,2.549-2.479A3.582,3.582,0,0,0,208.46-23.018Zm-8.472,2.2c-2.41,0-3.523-2.638-3.523-4.15a3.422,3.422,0,0,1,1.462-2.7l4.54,5.948A4.254,4.254,0,0,1,199.988-20.815Z" transform="translate(-194.589 35.523)" fill="#eb4442"></path><rect width="10.845" height="1.065" transform="translate(1.428 17.647)" fill="#eb4442"></rect></g></g><g transform="translate(30.968 30.417)"><path d="M189.239-61.718v-3.109l-11.47-1.518v47.807l11.47-1.6v-3.112l-7.052.933V-62.569Z" transform="translate(-177.769 66.345)" fill="#eb4442"></path><path d="M188.1-61.718v-3.109l11.456-1.518v47.807l-11.456-1.6v-3.112l7.047.933V-62.569Z" transform="translate(-167.722 66.345)" fill="#eb4442"></path><rect width="3.649" height="5.427" transform="translate(13.933 1.518)" fill="#efeff2"></rect><rect width="3.649" height="5.43" transform="translate(13.933 40.782)" fill="#efeff2"></rect></g></g></svg>